<svg width="7" height="7" viewBox="0 0 7 7" fill="none" xmlns="http://www.w3.org/2000/svg">
<path d="M3.5 3.5C3.01875 3.5 2.60677 3.32865 2.26406 2.98594C1.92135 2.64323 1.75 2.23125 1.75 1.75C1.75 1.26875 1.92135 0.856771 2.26406 0.514062C2.60677 0.171354 3.01875 0 3.5 0C3.98125 0 4.39323 0.171354 4.73594 0.514062C5.07865 0.856771 5.25 1.26875 5.25 1.75C5.25 2.23125 5.07865 2.64323 4.73594 2.98594C4.39323 3.32865 3.98125 3.5 3.5 3.5ZM0 7V5.775C0 5.52708 0.0638021 5.29922 0.191406 5.09141C0.31901 4.88359 0.488542 4.725 0.7 4.61562C1.15208 4.38958 1.61146 4.22005 2.07812 4.10703C2.54479 3.99401 3.01875 3.9375 3.5 3.9375C3.98125 3.9375 4.45521 3.99401 4.92188 4.10703C5.38854 4.22005 5.84792 4.38958 6.3 4.61562C6.51146 4.725 6.68099 4.88359 6.80859 5.09141C6.9362 5.29922 7 5.52708 7 5.775V7H0ZM0.875 6.125H6.125V5.775C6.125 5.69479 6.10495 5.62187 6.06484 5.55625C6.02474 5.49062 5.97187 5.43958 5.90625 5.40312C5.5125 5.20625 5.1151 5.05859 4.71406 4.96016C4.31302 4.86172 3.90833 4.8125 3.5 4.8125C3.09167 4.8125 2.68698 4.86172 2.28594 4.96016C1.8849 5.05859 1.4875 5.20625 1.09375 5.40312C1.02812 5.43958 0.97526 5.49062 0.935156 5.55625C0.895052 5.62187 0.875 5.69479 0.875 5.775V6.125ZM3.5 2.625C3.74062 2.625 3.94661 2.53932 4.11797 2.36797C4.28932 2.19661 4.375 1.99063 4.375 1.75C4.375 1.50937 4.28932 1.30339 4.11797 1.13203C3.94661 0.960677 3.74062 0.875 3.5 0.875C3.25937 0.875 3.05339 0.960677 2.88203 1.13203C2.71068 1.30339 2.625 1.50937 2.625 1.75C2.625 1.99063 2.71068 2.19661 2.88203 2.36797C3.05339 2.53932 3.25937 2.625 3.5 2.625Z" fill="black"/>
</svg>
